<mxfile host="app.diagrams.net" modified="2023-11-10T07:35:29.428Z" agent="Mozilla/5.0 (Windows NT 10.0; Win64; x64) AppleWebKit/537.36 (KHTML, like Gecko) Chrome/116.0.0.0 Safari/537.36" etag="YdmBq-myZdfIro1Gm5rB" version="22.1.0" type="github">
  <diagram name="第 1 页" id="ak8X72bpXOitV82NV0NH">
    <mxGraphModel dx="3347" dy="897" grid="1" gridSize="10" guides="1" tooltips="1" connect="1" arrows="1" fold="1" page="1" pageScale="1" pageWidth="850" pageHeight="1100" math="0" shadow="0">
      <root>
        <mxCell id="0" />
        <mxCell id="1" parent="0" />
        <mxCell id="AVh83eP27XPYdGekYnpN-7" style="edgeStyle=orthogonalEdgeStyle;rounded=0;orthogonalLoop=1;jettySize=auto;html=1;" edge="1" parent="1" source="AVh83eP27XPYdGekYnpN-1">
          <mxGeometry relative="1" as="geometry">
            <mxPoint x="-980" y="350" as="targetPoint" />
          </mxGeometry>
        </mxCell>
        <mxCell id="AVh83eP27XPYdGekYnpN-10" style="edgeStyle=orthogonalEdgeStyle;rounded=0;orthogonalLoop=1;jettySize=auto;html=1;" edge="1" parent="1" source="AVh83eP27XPYdGekYnpN-1">
          <mxGeometry relative="1" as="geometry">
            <mxPoint x="170" y="350" as="targetPoint" />
          </mxGeometry>
        </mxCell>
        <mxCell id="AVh83eP27XPYdGekYnpN-1" value="进入小程序，请求微信后台获取临时code，&lt;br&gt;拿code换取用户手机号登录" style="rounded=0;whiteSpace=wrap;html=1;" vertex="1" parent="1">
          <mxGeometry x="-550" y="140" width="280" height="80" as="geometry" />
        </mxCell>
        <mxCell id="AVh83eP27XPYdGekYnpN-6" value="换取手机号失败，首次登录" style="rounded=0;whiteSpace=wrap;html=1;" vertex="1" parent="1">
          <mxGeometry x="-870" y="130" width="200" height="40" as="geometry" />
        </mxCell>
        <mxCell id="AVh83eP27XPYdGekYnpN-9" value="成功换取手机号" style="rounded=0;whiteSpace=wrap;html=1;" vertex="1" parent="1">
          <mxGeometry x="-180" y="130" width="250" height="40" as="geometry" />
        </mxCell>
        <mxCell id="AVh83eP27XPYdGekYnpN-12" value="" style="shape=image;verticalLabelPosition=bottom;labelBackgroundColor=default;verticalAlign=top;aspect=fixed;imageAspect=0;image=data:image/png,iVBORw0KGgoAAAANSUhEUgAAAOgAAADRCAYAAADG3P4dAAAgAElEQVR4Ae2diXdcxZXG+QMymYSETCZhTQhJIOy7sY2xjW2w8SJLsna1Wt2PEEg4JMMBB4YtgbAFAgwEDhOWDEvYjUNYw2oCGLzKNrbBu41tSZYla99ad85X7du6Kr3Xi9wtvW5dnfPO26vqfXV/dW9VvX466GsTHPrahLBZvjHRoWNmhKmg0qGSKodKgw6V7V/mBRwaX+jQsRc5NHFe//Ex+Q4dPs2h75zv0LcnO3TwJIcOnebQuYXRa6rDDgVDDs0pj1739YkOfe28gcs3JzmEdBxn+JZAOESnlBbTN/NnD1gOKZhDxxYXUmEwSMXV1VRSXU2loWoqC1VTeShEFaEQVYZCFMASDlFVOEzBcJiq968LgkE6sbSIxleUmeP8TKFwmHDuyKJ8OrhgjuvyncI8GltRNmw6hEIOzZgbou+fVBl3OfSkSjrytACdOTlIRaUhqgyEqbIqugSCDlUFHcK6tCJMc4tC5hzSDoXFEnKopDxMZ58fpMNPCRDS9Fp+dGZg2DTg+vHr+qCBgIYNoPmVDhUH9kNa1Q8joC0KRPcB7+Qih743xaETZjo0q8yhi8qi8BZWOoQFQP9sZnT5/lSH/n2iQ/9mwQlY/QboT4sLqSBYRYXVQZqLdbCKSkL9oMYDtqg6SCeVFtFpZcUG4PD+RgcgzwhU0mHz/AkoYAGovGZoef/wUyrpxPFVNDM/RBflV9O4aUE6Z2r/MlbsYxvnx13Qv+DYKROqDOiHnewNJ/JTQPsd1UHsPbE2HnS6Q3MroiDakJYHHarAUu1QYcCh4y5y6MgLHMqviHpJeMtAyKGZZQ79aLpD35gUhRJe0w1M9qR+AvTbBXMIgOYFq2haoIJ+WFRAJ5cW0ZxglfGA4yrK6KyyErOcXV5CWMaUl9KY8hIaW15KUyorDJxHzMunCwIVMY8L0I8vKaJDCvNcvSe86kh6UAaRwbTXgOrHZwdo6uxqmja7mn5weoAAbSrLYafEBxNlUED74YRXH+BB4eEAVl6FQwhp4S3dIAWogBLXHjPdodKqfkDhZY+6wKFEUDKcfvOgDCiABGw/KCowHnFWVYBmVgXo2JJCOqZILMWFdExxoQH5e4Vz6buFeWb5VsEc+o/CPDquZJ65/6iifELaXuHtSAPq5j0lpADnqNMqaeKMIM0qDNEPz4gfpjJssXUCrxm7Tj3ogPBeeNAoVIdPC9OM0qgXRV/UhKv7YTXAVkVDX3jZE2Y5dOhUh6YVR8NeeFcAiv4nwP3uFIcOmxYFFn1Ut/6nHwH9SXEhzQkGaHYwYCBFaIo+6bz9IS/OwcNiyQ9WmWsnVJTRD4ryDaynlBbR6WUldEZZCZ0Jb1seXWMfoe/PSubRfxbmESCWwI6kB5Uwem3DW46ZGqTZhSE6flzyHvTI0yrpiFMDpB50oHdMpt8rAA3Tv50XpoMnhem4mWE6a2504OacfIewjMVS4NC4AofGF0T3j58Z7T8eMc2hU+c4dPoch8bMjXpgeNgpxdF+KTwy7gGkbqGu30JcAAo4AR8GdtAXBZzoXxZXBwcNHAFe9DvhLeFpMZCEQSMMDHEflCsDx5AOoIWHzSZAjzi10gzyYCAIoe5Zk4N02sSq2HL6xCoyy6QqOmNSFZ05ucr0RSfPrKYJ04N03DkBOjQJT6p90H6QBwCKfigA+sbEsBmRxajsIWYJ0yGTeeFjDn1rchS4r+8f6AFoOIZ+KYCOhb4Ywaty6KRZ7l7UT4DCqyEchddkTwlQ84NBF1ijo7zwpEcXFdD48jIDJ0Z3eWQ3Cmk4FrYAWJxD2kcXF2QNoPCePx0TMP3PorIwFZWFKL84RHnzosuc/eu8opAZyS0oDtG80hCVVYQpEAxTRSBMF+aF6OgzE0OqgLoC2j/d0j9wtP8YRl7FdEz0PB+T90WPAdjDpjo0vTTaN8VwO6ZrzsjzP6AH58+mQwry6MfFhSZEjQ0IlWEwKDogdE55qRkQwqDQ2PLooBGmTxDmwntiCqZqEKRR0QEovCugh6f2kwdFP9ArvIX3PHlClQlvMV2CBYCOmRKkY84M0NFnBAx8gAsQAmb0VwFmdShqBwUlITpxfIB0FLcfQI6svNaWB2XYeB2dH+0HlvejIA4Gdf/x86Ke9KTZ0dFewIl+LaZk/BbiAshv5s8ZMBeKY/CkWDCwk8zynYI8OqGkyPRVMV9qz5FyuBtyHAPx5MpyM5jkJ0ABpw0pD97Ag/5sbICm51VT1IOGaWZBiE7Y3xcFdHI5iudNy0IUrI7OlaLv+pOz1YN6weh23AKUAXRbSyhxXkLM5/hYFESEu0dfGJ0HBZx+HSSKQjrwhQX7BYZE+wcXzKbvFebRiSVFNLGijKYGKsw0DaZqMN1yYaDSLNiG58V8aLYMEjGkGOw5fVKVCXMx1XLW5CozzWJDDdABK7zquRdGB5Uwd4p7eaCIGwNOW641xO33sCkB+v2LLqe7nn6d3lu2lj5Yvi5ty6Ll62jpqnW0bt3wLWvXraPP1qyhRatX+Wb5cPUqWvb5mmHTARrUrFpLH332eUrLx0s+JyzJ3vdJqtcvXTtsGmTa5latWkXPPvtsbAzCzUvGO5YkoA79uPAq2tPUQvqnCqgCqSkQiURoy5YtQ4LUA1AOVaOh7tH5V9KaTV+lViq9WhVQBWIK9PT0UE1NTcqQJgXosUVXU6SvL5aZbqgCqkDqCtTX1x8ooAM9J4/eHls0P/XS6B2qgCowQIE9e/YcKKBuo7dhggfVP1VAFTgwBYYEKH6VMrvcodll3otzhXrQA6savVsVIBoSoPGGePnc/PkKqBqYKnCgCiigB6qg3q8KZFABBTSD4mrSqsCBKqCAHqiCer8qkEEFhgTomDFj6Pzzz6fJkyfTeeedRxMmTKCCggKqrq6m/Px8mj17Nl1yySUZLLYmrQqMDgWGBGhZWRnNmjXLzM+EQiGaO3culZSUUCAQoJkzZ1IwGKRLL710dCioT6kKZFCBIQEKAGfMmGGALC0tpQsvvJAAKgDFcXjTiy++OIPF1qRVgdGhwJAARSgLjwlQEdJijekVBXR0GI0+5fApMCRAzz77bDr++OPpnHPOoXHjxpll0qRJVFxcbDxoXl4e/fznPx++p9CcVIEcVWBIgGJg6OSTT6apU6dSONz/7Rx40OnTpxtIFdActRh9rGFVYEiAIqydMmUKFRYWGkg5xEXoi/7n+PHjdRR3WKtRM8tVBYYEaGVlpQETQFZUVJjplmnTppk+KMJbAAxvqn+qgCpwYAocMKD87i17T0yzIOy98sorD6xkercqoAroy/JqA6qAnxUYkgdlrxlvrb9m8XO1a9myRQEFNFtqSss5KhVQQEdltetDZ4sCCmi21JSWc1QqoICOymrXh84WBRTQbKkpLeeoVEABHZXVrg+dLQoooNlSU1rOUamAAjoqq10fOlsUUEBTqCn8r4wVK1bQddddR01NTbRr1y66+eabCf+Nyu2vra2NXnnlFXMe248//jideuqpnsvYsWPplltuoaVLl9L9999PnZ2dJlnku2TJErrgggsG3Iuf+L311ltuWVNXVxctWrSIbr/99lg6rhcS0b59++ihhx7yfA6v+3Acz4X/xJVMPnY6fX19RsOrrrqKrrjiClMO+xq5j38otHnzZrr22mtp27ZtJu8XXniBHnvsMXlZTm0roElWJxvTTTfdZKBIBBx+7bNy5UrauHEj/fKXvxxk/Pzfq2677bYBhonjMD7kw0YLQNEISGgB1QMPPOAJaKLz8rEPBFCkg/vvvffelEHBfXfffbcB7tZbb014vwLa/z9A473Fd1C8k3wu1171A5BPP/20gQb/0MbLO9lG5AYXjBrpvfzyy0kBhmttTyEB9PKw8bz1WWedFWsA3AB1S1PeIwHnxiteNCGvZ6gBJzxvR0eH8aSITOJ5Q1tbN13sfLJ9Xz1oEjWIcPHNN98kGOjll19u/iWc9HzSUJLxJtL4zz333AFGacPC1+JDbTKU5jIBwkRpeD0i8kJIbYOM0Pm1114b4LUBB/5fpXxumS7SuvPOO2PQy3NyG+kgqsAvnmwYkQZDi/CeweeoJRGguD9eVCHLkS3bCmiCmoKR1NbW0p/+9CfjNdlApbHgPy7Dw8E42CtKgBDuMly4b/v27XTPPffQHXfcYfql7DmQV3NzM7399tvm8zGABH1PG854RUZjkaivK8vDELD3YyNPBVDW4rLLLjOfuvHqF3PZZP44xprhuVg3vgb7HK20t7d79kG5DNw/jadRNp1TQJOsLRgAe5CGhgZatmwZ/epXvxowWPHoo4+aUO2aa66JDZrA4HkARhrR6tWrDdBvvPGG8Sj4jjAbNrwmD0bh/mT/3ACw75XlwTk3QFHe5cuXJ+1BkS8GiuCNP/nkEzOIJsvNeXBDJMtkAyrLhOsfeeSRWD8efXqvQSIuw1AGq2R5/LatgCZZIwzoH/7wBxPiYlBj/fr19Otf/9qEiNziIzkYJ4daDAQMXkItr0HaXoNJDJ0dhmL/jDPOMF+0kCOaGKxxC1vl/bKsDI/0oKkAapddPpebtHge2Z92A9S+j+8BrG6AcsPIz2Dfn837CmiGaw8G++c//9mEcTL8sg0ZXpNHaltbW2Me1Gs6B0bL0xsIiz/66CPTp0O67LHdHs0+L706QOfzyXpQhof7k3Z6dhns67Fvh+T2YBS0QeOGEPr9998fNM2C53333XcT9n/tsmTDvgKaZC0xUNzXxPymbRQwTg6DcT3+2OC5D8rZcXoc1vJxrG0jtr0UzvOIMufD92M/FQ8q+3gYmOHyJgMo7kV/Gd+lAtz8h/Jx48FzufJcqh6Uvfz1119vGjtu6JDP888/b+aieSCJ88mVtQKaRE3KPiEGeDh8ld5iw4YNBthf/OIX9NJLL5nW3Mv7IUsvQG0YuXh8HN8exgsNXn0tBsxuEDgd+7xdDj6fCFBoEm8AC+m4zY3ajQ/25SARl9NtLfWWYT17b7d7sv2YAppEDUojltvyVml48CwYLEGfCUDJvqK8x20b99qemWGQbxLZUyucFgPmBih7Iu6r2XnhPEasAdamTZsGvb3EoSfmgTHtJPuynD+vOS85YIZzUifeV0BZtcFrBXSwJnGPuMFiD9ggARg/9wuxDYOWAzVu2wAAnytFCIfQF7AhXHXzmDJN+cqfG6CAgvt5DFljY2NswEXCyHmhH8x9YoSp8F4I33//+9/TwoULB4W1XqKhPJgfxT/TQmTh9txux1DOVO9BOqk0hl5l9tNxBdRPtaFlUQUsBRRQSxDdVQX8pIAC6qfa0LKoApYCCqgliO6qAn5SQAH1U21oWVQBSwEF1BJEd1UBPymQk4BiCmLx4sWxl8+l4DjHv46Qb7lg3q6urs7MXWJqAH9yzg7H+AUFmR62kSZPqcgpDbfpA547lNMh8kUIzttO12t6xy0PPuY15cBzlEN9+4bLji8/yDeJeCqGf/GDZ+C8eO7V7RqpJ7S054Hl+UTbss68rkX5E71txRrKKSyv9DJ5PCcBZaOAAeKVvERzkDw3KH+IzT8iZsNCpSYDKCrL7VobQjZyfqHAzbAk+G5GIJ/T7ZVBt3v4GEDxekGfr/Fac9nxi5uvvvoq9t4wjtsNIJeRdUwEKPKEFl6vCnqViY8n81xcftbeLiOnheu86pyvyfQ6JwGFaF6GYBuQLTBXHl51c/sOELesgBqfMnnvvfcGfCsILS4aBHyviD0Uez/5u07Oh40E5ZW/1EC50gFoIo/OzyPXeFmBf6Ujj8fblt6aDRvv3MbzVPIet3pIBAf0SdT4yjKzN7S1V0Bt9Ydxn8WPZ3Bur82xkbFnsvflI7iBJPN1M0TbSJCenY69L/PENufBDYF93t7H9fwqn3y53b4u0T6gT/b1PC5jKh4U+SOPJ554Iu4bS9DHrbuSqPzQPl7D4QZ1ojQzdT7nPCh7K7y3yi2mFM+rUrnSONzFvvzDvleLboMkyzBu3Di64YYbCP/YmD8ChnSRXryfheGaRCCw8eP7T/gWFPdvZbnltpuXlueT3fYql5uGXMZUAOV78FxoWL1ehnerS7srwWnJRszWnq/hMrIO8eqcr8n0OucAZcFgRAsWLDDvoMbzntxawrjxi328b4qKwuCHfDmdr5Nr9rwwFBlquXlM7huVl5cbr4AvKiQC1DYkfjZes2HhywMPP/ywCcnz8vI8f+nCZcAL/PI5eJvfw+X+t5tuuAbv477zzjuu4CAP+ZM7LiMbv32en0WuoScGivD9J9QJ/7xMXoNtBhQNIN41lh8g4/wArPyhPO6zdbXLyPkooKxEBtaylce2/A0iZwdjkf0+N+ORlWlXmPSUDCunjTUq3iuklOnKe3jbLhsfl2s2LNs7IHxz86a2d5FpxdNIAod7kI58kV6mwxriyxPox3s1Btwo2LrZz+RVLuQJQDF6bn9pAdryT90YYvnzPJzXEHf+fFlvw75tA8q/5mDD4LX0dmxcPE3AxsKtsQRUGg4bCkIxbEtvyvnwmg3SBtTedzMsW0QunwQU17h5DRxHmb1GR+XzyHxsTXDO7RjfY5/jMrKG9nm+j9f2c9v383VYS91l3cg0MHUmuyZIz240vfKQacp8h3M7p0NcHsiIZ3xeHpR/bC1/zygrTG5LQ5GV52YMfB73I8TFfC0aD9lflp5ZHud7ec2GZQPK5+UaYMSbVpHPY99ne1DOl6GT+9xN4EbObhTiAcrPLUe7URbo6zY3irS5jiWU+Kkcwlr+8Tx/3A1pueUvy8+j6rjWSxOpT6a3cx5Q9EPxeRB8NpO9mFxLD8qGgL4PwjP72604z97Rvo9DLUCQKKw7//zzTR8XfTzu9/FLE2ykSCPRZzfZsJIBFMYmvzlrG5aXMboZNO6V4MnPYfKXJTAghqkm+9MsXunhOLSTXzeUZZT5QSt+dm4kcL9sbLmMdtcG+trhuZ0W5+ulCZ8fjnXOAgpx0c+AB0Ira1cUxJWVyobFra4ccU1UEQCX3ySS16Li7XAK52Ek9sAFGwmglf1HBtb2KkiH70kEKLSI91FphsPrX1TYjQ7KV1NTE/vEKAaNMB2FNRqwVDXkZ0SjxNNaUkfels8hXyrhxo2vk9owwHzODTrWMZlrOZ3hWuckoDYYaH0loNjnPil7MAjx5JNPmo9fscEkGsUdP368GfGFYbmFonY5vCqV8/My0HgNgHwhwi19GKTtOdkg5Sgt942RBpcHz+817YTrZDp4/hdffDGmoYw2ZMRib2MaCqO0bg2Q2/Og7jA/OmvWLEL3I9ELJTI/1BdCbw6/OX1+DgCK1xfdoiS+drjXOQnocIuo+akCmVJAAc2UspquKpAGBRTQNIioSagCmVJAAc2UspquKpAGBRTQNIioSagCmVJAAc2UspquKpAGBRTQNIioSagCmVJAAc2UspquKpAGBRTQNIioSagCmVJAAc2UspquKpAGBRTQNIioSagCmVJAAc2UspquKpAGBRTQNIioSagCmVJAAc2UspquKpAGBRTQNIioSagCmVJAAc2UspquKpAGBRTQNIioSagCmVJAAc2UspquKpAGBRTQNIioSagCmVJAAc2UspquKpAGBRTQNIioSagCmVJAAc2UspquKpAGBRTQNIioSagCmVJAAc2UspquKpAGBRTQNIioSagCmVJAAc2UspquKpAGBRTQNIioSagCmVJAAc2UspquKpAGBRTQNIioSagCmVJAAc2UspquKpAGBRTQNIioSagCmVJAAc2UspquKpAGBRTQNIioSagCmVJAAc2UspquKpAGBRTQNIioSagCmVJAAc2UspquKpAGBRTQNIioSagCmVJAAc2UspquKpAGBRTQNIioSagCmVJAAc2UspquKpAGBRTQNIioSagCmVLAF4B2dffReys76ZI7t9HMqzbTrKu36qIa5JwN5P12M81/cCfVbO5JmucRB7Q3QrRqU5cBs+CmFtJFNchlG8i/oYkCN2+h2sZIUpCOOKBtHRF6/I19NPe6BoVTG6jct4Ebm6nilgZ6dXFrdgDa0h6hh15uzP2KUfi0jvfbQOVtzfTi+00KaC6HSvps2dsVUEDVW6m38rENKKA+rhz1fNnr+dJVdwqoAqoe1Mc2oID6uHLS1QprOtnriRVQBVQ9qI9tQAH1ceWo58tez5euulNAFVD1oD62AQXUx5UjW+GSW1roruc7qKG5jzbvjtA1j7R7ghW4vZX+/nEXfbmjl373RDv95bVOWru1d9A9F9/dSjsb4r9GFomQa37lt7bQI6930ra6CN3x7OCyBO9opX+tHvgeKd6jXrGhx9xz34KOQfeH/9hK67b1ek7Ke5VF6pRr2wpolgAKmLbXRWjr7git3txLKzf2pgXQTTsjtODDLpMWoHpvRTd9UNNj9gGhF9wAAUAlKguuQ4Pxj0+6aeeeCD38aid9vrWXWjr6aF9bHz3+Zqfnc0jYZKMTr3GS9+TCtgLqc0AByaNvdNK+9r4YOABjzZbeAZ4NcH2wstuAK41ZetAb/9pOdz3XQVt29xowAH0qgCbycHB9Pb1kysBl3F4foefe76LG1mhDID0vvCieDS+DA1Q3ryvdqXpQqcbg7RF/WX60vYsLI1+7rTfmabC/fEOv8XhszB1dfWZfGv4DCztcQ9xbnmqPHYcXSjXElfm7eSc0DAs/6qKl66PencuIXyHVNUUMvNKs+vqix91CZDt92eioB5Uq9m8roMPkbbm/WdfY7zVhsDYgfN2efX3Ga7FHfGtJdwxE6UHveKaDajb1xjwxX59siGvn7wYRA+rm+eX1gPfDVd0G3Hte7DD968bWvn5ri7PFXlqml6vbGuIOE3RDMSAA+MfnOmj99l4zEJMIEBg9wtwNX/UOAhRpYFCHw1uUx7mrldZtjYa72Mf98fqgyD/eIA6YAjzIC6FrfVPEQNjR7Q4eQta9LX3U2hFtYGyNEj2vfX0u7iugWQaoBARmLwdaOMzd1RChD2q6B4zibtwZobeWRY9xiJhqiGt7XBsIO8RFebwGmexrkRbS31EfifWtAagchMK+jADs/HNxXwHNMkC5D+pljDDybbUR+mJH7wBAd9RFzCgwh7MmPBYDRkgvkQe1Pa5XGfg4h7leHtQtVAW4r3zSbaaTELrDC3d299HidT3EoTynPxrWCmiOAQqjlQMqsg/KnhPXuHm3eIB6pZMIElkWzp9DcbepIpzD/CkGvxBur9rcSxt29lJDc3SkN1F+uXZeAR2lgNrhIww7HqD2AFMqICDdRTXdJnTFSDLPicrRW/a2bZ39L2JwH/T1T7tNn9arr5pKWbLtWgXUp4DCOGV/02tQE/3Qto4+Wr6hh7xCSfteM+3R2DdgwEgCijCa3wJCGIq3kORgVSIj59HlZEdlZXmefqcrNqJr97HZu3b1UGwkOlFZsv28AupTQLPdsLT86XnRXwFVQJN61U6BSw9wqeqogCqgCqiPbUAB9XHlpNra6vUj4+UyqbsCqoCqB/WxDSigPq6cTLbMmnZ2eFsFVAFVD+pjG1BAfVw56uWyw8tlsp6yCtD2zj569p1WmnPtbm31tWHJeRvIv3EfVdy8m95b3mG/a+K6P+K/B8WbJbv39lD4tu2Ud119zldQJltmTdvn3vnGZiq4vpZ++9DOQT90d6WTiEYcUBQMvyHcXt9L973QQFc98JUuqkFO2sA1D+2kv77eRE1J/ogdbPgCUK/WQ4+rAqNdAQV0tFuAPr+vFVBAfV09WrjRroACOtotQJ/f1woooL6uHi3caFdAAR3tFqDP72sFFFBfV48WbrQroICOdgvQ5/e1Agqor6tHCzfaFVBAR7sF6PP7WgEF1NfVo4Ub7Qr4BtBIXx/t7mqjpftqaUnTbl1Ug5yzgZXN9bS3pzOlNscXgLb0dtE9m5fQmHcepXEfP0XjP3tWF9Ugt2zg02do3EdP0pQPnqRnd61LGtIRB7Qr0kv/3LOVznn3MZqw4kVdVIOctoFzlz1PF334N1rT2pAUpCMOaHNPF9296TNCwRVQbaBGgw1cuGIBPb1jTfYA+scvP1U41XOOGhuYXrOQnty6WgEdDa2xPmP2RR0KqHqjUeONsrGBUkAVUAXUxzaggPq4crKxxdcypzeMVkAVUPWgPrYBBdTHlaPeKL3eKBv1VEAVUPWgPrYBBdTHlZONLb6WOb1eXwEdZkDz17xKX7Y30VO1XxjPdUHNQrpnx0qqad1Dl37x3gBvhmt3dLbGnaTu7eujDe1NsXvt9Ges+jv9re4L+njfrljaU1a+TDdsWUwNPdF/KSDTwPXP1X9Jdd3tdP9XNbF7Zq1+hd5p3BErC+7Z1LGP7t2xkjZ2NJlr8Sz37aihnV1tZh9pPV+/gXr6IrH75EYf9dGurjb6782fkJ0+ruuM9NKnzbUmn1u2LqH7dqw027geDUHe6n/QqjivwcnnytaGQwEdRkCjBryS6rvbY3BIg+VtGPSS5lqyYYMRv753K73VuM0YqA03wLt+82Lz7iYbsRug0ljleQZ3Z1erAYNBw/Uyb84X74gyoI/vXjsIbJm2zBPbrAUg57LyNbjvubovaXtnC929fQWtbN1DeM2zqadzQKPB17utkcazdV/S2ra9scbL7Tq/H1NAhxFQtPhLW+pigME42Ni9PKj0thISt3tx/q2922hXV2vcBqA90kML92w2nnVV6x6zXt5ST/+zo4YaejqNd0e55D7njevWtDXQm3u3mYYAgG7rbKbFzbWDYAAkyXpQaLOytZ62dOwjwC7LwZ4z6kX7PTTKJL06N3C8Vg/qkOPEXw5KdAHOz58/nzWNu0Yrmq3v4kqDBxxehivDvlRDXNvjspfa091ufj/7yO7PB4Ss8MYIIQEbwlTpMdmzIM0tHc0mLMf1boByiMv38DpVD8rAAaza7rZBobHUhvPwWqsHjQ8mc6mA7vfQDJv0XugXSg/6Xxs/HNDPsoFjL+YW4l618YgBFVoAAAT/SURBVF8G+uberlj/Fte/sXcbfd62l3Z0ttD7jTtcAeWw2a1Ph/Kiv8x5S0C3djQbkOxWFT8L5DJ6AWQf5wasqbfL9V7k/3bjdtNn/d2Wzwb0oe387X3uMth5ZsO+hrjDEOKib4d+1urWBlrRUm/Cy2Q86Nw1rxJCUB6sYUjY+CXc6Htu62ih2q52AxT3RxEiw0Oub2+kxc27Y/09G0YG0ctoOW8JKPdBEZYiDw7TGTakmcxfhPoIDcue7g4Dodd98Ky4prm32/TR7bLimRAR8ACcfT4b9xXQYQCUDcPNgCRkbh40mVFchKD/u3MNfbRvV8xAGaiPm3ebPib6jewpuTy8RkPA/UoMqjyy63MDG7wyjwBzesta6mhpcy09U/dFrA+KEBfXycaE03Z7Zj5nr6UW9oi2W7iMCANenEexkRcaEAywIW3s231+O0+/7yugIwAovCemOWDYGBBhCKSx8Iiq7N8xJG4eFAbNMLxUvzEWKt+2balJf2lLbSxPeGROHx6ppbfblAXlWN3WQH9v2Gz2AaEcpOJ76rrbDAS8z89hj5om8qT4h8xyZDbR9W6hKvc1MTKOqSH0XTsiPbSo6Svickpds21bAR0BQBGCsXFjLtItvHTzJskA+llzrTFOTJVgW4aL3X0RM9K6u6vdhKQYFHp45+oYuE/VrjceB14HnujL9sZY2ArD5vz5PEJabmgAve3B4sHAzy8bIFzPwMnpEeSLEJo9o0wX5zCSi+dEhAAPv66tcdA8rrwnm7YV0BEGFF8nXN/WaCblpQG6GTsDEs+DAiyEvJyWHRra6XqBwt6Y+3NoMHi6A/1phMXsbTEABaAQaqIvLPP3ggHl4rlOex4Uz/nPxu0mPYTZbtext22NdA8IcdEHRQSBKSKvvqpXmfx4XAEdZkCXtNTFPJsM79gTYFAFng6hpe1dGFAYIc//ybDPhgoGZwPKRsgGDs+DNACVV3/XqzycRjIgoGz2Wz8cOXAjwW82JRpYwmARGjbowxEA7rVDZtZ0KKPKrNNIrxXQYQR0pCtb80/ve7LDoacCqoDG5kaHw+A0j9QaCQVUAVVAfWwDCqiPK0e9TWreJhf1UkAVUPWgPrYBBdTHlZOLHkGfKbWoQAFVQNWD+tgGsg7Quzbov35QL5SaF8pmvQDoU9uy5F8/4B3LF3Z9QWM/+D9t9X3c6mczEH4qO/5J2PSPnqF/Ne5M9O6GOT/i/90Mpdjb3UFXrHxLIVVAc7qRBpyTPniSbl//cVJw4iJfAIqCwJO+Xr+ZHtq0jB7cqItqkHs28JctK5L2nEywbwDlAulaFVAF+hVQQPu10C1VwHcKKKC+qxItkCrQr4AC2q+FbqkCvlNAAfVdlWiBVIF+BRTQfi10SxXwnQIKqO+qRAukCvQroID2a6FbqoDvFMgYoFdffTW1tsb/L16+U0MLpAr4SIFIJEJbt25N+L9Y+F8+8Dqpf/1wxRVX0KJFi3z0uFoUVSC7FGhvb6cFCxZkBlDQ/Jvf/IbWrl2bXapoaVUBHyjQ1dVFH374YcpwgrukPCi728suu4wefPBBevnll2nhwoW6qAZqAwls4IUXXqC77rprSHCmDCiDquvk/nWc6qQ6HagNpORBDzQzvV8NVm0gNRtQQBP8h2M1qNQMSvVKr14KqAI65P6RwpheGN30VEAVUAXUxzaggPq4ctxaVD2Wea/lJ43/H95b0HAZDOG8AAAAAElFTkSuQmCC;" vertex="1" parent="1">
          <mxGeometry x="-1102" y="410" width="232" height="209" as="geometry" />
        </mxCell>
        <mxCell id="AVh83eP27XPYdGekYnpN-13" value="弹窗提示" style="rounded=0;whiteSpace=wrap;html=1;" vertex="1" parent="1">
          <mxGeometry x="-1100" y="350" width="230" height="60" as="geometry" />
        </mxCell>
      </root>
    </mxGraphModel>
  </diagram>
</mxfile>
